<svg width="32" height="32" viewBox="0 0 32 32" fill="none" xmlns="http://www.w3.org/2000/svg">
  <rect width="32" height="32" fill="#000011"/>
  
  <!-- Audio spectrum bars -->
  <rect x="4" y="20" width="2" height="8" fill="#00FF00"/>
  <rect x="7" y="16" width="2" height="12" fill="#33FF33"/>
  <rect x="10" y="12" width="2" height="16" fill="#66FF66"/>
  <rect x="13" y="8" width="2" height="20" fill="#99FF99"/>
  <rect x="16" y="6" width="2" height="22" fill="#FFFF00"/>
  <rect x="19" y="8" width="2" height="20" fill="#FFCC00"/>
  <rect x="22" y="12" width="2" height="16" fill="#FF9900"/>
  <rect x="25" y="16" width="2" height="12" fill="#FF6600"/>
  <rect x="28" y="20" width="2" height="8" fill="#FF3300"/>
  
  <!-- Glow effect -->
  <defs>
    <filter id="glow">
      <feGaussianBlur stdDeviation="1" result="coloredBlur"/>
      <feMerge> 
        <feMergeNode in="coloredBlur"/>
        <feMergeNode in="SourceGraphic"/>
      </feMerge>
    </filter>
  </defs>
  
  <!-- Apply glow to all bars -->
  <g filter="url(#glow)">
    <rect x="4" y="20" width="2" height="8" fill="#00FF00"/>
    <rect x="7" y="16" width="2" height="12" fill="#33FF33"/>
    <rect x="10" y="12" width="2" height="16" fill="#66FF66"/>
    <rect x="13" y="8" width="2" height="20" fill="#99FF99"/>
    <rect x="16" y="6" width="2" height="22" fill="#FFFF00"/>
    <rect x="19" y="8" width="2" height="20" fill="#FFCC00"/>
    <rect x="22" y="12" width="2" height="16" fill="#FF9900"/>
    <rect x="25" y="16" width="2" height="12" fill="#FF6600"/>
    <rect x="28" y="20" width="2" height="8" fill="#FF3300"/>
  </g>
</svg>